# xmcd
#
# Track frame offsets:
#	150
#	42244
#	75855
#	102822
#	139999
#	158863
#	171333
#	186696
#	206499
#	222691
#	229199
#	242392
#
# Disc length: 3338 seconds
#
# Revision: 0
# Processed by: cddbd v1.5.2PL0 Copyright (c) Steve Scherf et al.
# Submitted via: EasyCDDAExtractor 10.5.1.1
#
DISCID=a70d080c
DTITLE=Rudy Ray Moore - The Best Of Rudy Ray Moore and Friends
DYEAR=2006
DGENRE=Comedy 
TTITLE0=Dolemite
TTITLE1=Petey Wheatstraw
TTITLE2=Shine and The Great Titanic
TTITLE3=Signifyin' Monkey
TTITLE4=Pool Shootin' Monkey
TTITLE5=Have You Seen My Mule
TTITLE6=Sell It (Lady Reed)
TTITLE7=Will The Real Dick Rise (Lady Reed)
TTITLE8=Fingered Out Here (Billie McAllister)
TTITLE9=Saturday Evening Post (Billie McAllister)
TTITLE10=Finger Lickin' Good (Jerry Walker)
TTITLE11=Eat Where You Want To (Jerry Walker)
EXTD=
EXTT0=
EXTT1=
EXTT2=
EXTT3=
EXTT4=
EXTT5=
EXTT6=
EXTT7=
EXTT8=
EXTT9=
EXTT10=
EXTT11=
PLAYORDER=
